<?xml version="1.0" encoding="utf-8"?>
<!-- Generator: Adobe Illustrator 19.2.1, SVG Export Plug-In . SVG Version: 6.00 Build 0)  -->
<svg version="1.1" id="Layer_1" xmlns="http://www.w3.org/2000/svg" xmlns:xlink="http://www.w3.org/1999/xlink" x="0px" y="0px"
	 viewBox="0 0 512 512" style="enable-background:new 0 0 512 512;" xml:space="preserve">
<style type="text/css">
	.st0{fill:#FFFFFF;}
	.st1{fill:none;stroke:#FFFFFF;stroke-width:15;stroke-linecap:round;stroke-linejoin:round;stroke-miterlimit:10;}
</style>
<path id="XMLID_1121_" class="st0" d="M28.6,267.1l22.2,183.6c3.4,28.5,27.6,49.9,56.3,49.9h297.6c28.7,0,52.8-21.4,56.3-49.9
	l22.2-183.6c0.6-4.6-3-8.7-7.7-8.7H36.3C31.6,258.5,28,262.5,28.6,267.1z M126.2,455.7c0,5.4-4.4,9.8-9.8,9.8H94.6
	c-5.4,0-9.8-4.4-9.8-9.8V303.4c0-5.4,4.4-9.8,9.8-9.8h21.9c5.4,0,9.8,4.4,9.8,9.8v152.3H126.2z M201.4,455.7c0,5.4-4.4,9.8-9.8,9.8
	h-21.9c-5.4,0-9.8-4.4-9.8-9.8V303.4c0-5.4,4.4-9.8,9.8-9.8h21.9c5.4,0,9.8,4.4,9.8,9.8V455.7z M276.6,455.7c0,5.4-4.4,9.8-9.8,9.8
	h-21.9c-5.4,0-9.8-4.4-9.8-9.8V303.4c0-5.4,4.4-9.8,9.8-9.8h21.9c5.4,0,9.8,4.4,9.8,9.8V455.7z M351.7,455.7c0,5.4-4.4,9.8-9.8,9.8
	H320c-5.4,0-9.8-4.4-9.8-9.8V303.4c0-5.4,4.4-9.8,9.8-9.8h22c5.4,0,9.8,4.4,9.8,9.8L351.7,455.7L351.7,455.7z M426.9,455.7
	c0,5.4-4.4,9.8-9.8,9.8h-21.9c-5.4,0-9.8-4.4-9.8-9.8V303.4c0-5.4,4.4-9.8,9.8-9.8h21.9c5.4,0,9.8,4.4,9.8,9.8V455.7z"/>
<path id="XMLID_144_" class="st0" d="M68.3,187.6H18.8c-5.4,0-9.8,4.4-9.8,9.8v24c0,5.4,4.4,9.8,9.8,9.8h474.5
	c5.4,0,9.8-4.4,9.8-9.8v-24c0-5.4-4.4-9.8-9.8-9.8h-49.2"/>
<line id="XMLID_143_" class="st1" x1="413.4" y1="187.6" x2="99.2" y2="187.6"/>
<g id="XMLID_1114_">
	<path id="XMLID_1116_" class="st0" d="M243.4,40.1c7.1-7.7,5.8-20.2-3.5-26.1c-5.6-3.6-13.1-3.4-18.6,0.3c-6,4.1-8.2,10.8-7.2,17
		l-154.6,167c-3,3.2-2.8,8.2,0.4,11.2l3.6,3.3c3.2,3,8.2,2.8,11.2-0.4l154.6-167C234.4,45.9,239.6,44.1,243.4,40.1z"/>
	<path id="XMLID_1115_" class="st0" d="M268.6,40.1c-7.1-7.7-5.8-20.2,3.5-26.1c5.6-3.6,13.1-3.4,18.6,0.3c6,4.1,8.2,10.8,7.2,17
		l154.6,167c3,3.2,2.8,8.2-0.4,11.2l-3.6,3.3c-3.2,3-8.2,2.8-11.2-0.4l-154.6-167C277.6,45.9,272.4,44.1,268.6,40.1z"/>
</g>
</svg>
