<?xml version="1.0" encoding="utf-8"?>
<!-- Generator: Adobe Illustrator 19.2.1, SVG Export Plug-In . SVG Version: 6.00 Build 0)  -->
<svg version="1.1" id="Layer_1" xmlns="http://www.w3.org/2000/svg" xmlns:xlink="http://www.w3.org/1999/xlink" x="0px" y="0px"
	 viewBox="0 0 15.3 48" style="enable-background:new 0 0 15.3 48;" xml:space="preserve">
<style type="text/css">
	.st0{fill:#FFFFFF;}
</style>
<g>
	<path class="st0" d="M7.7,18c-3.9,0-7-3.1-7-7V1c0-0.6,0.4-1,1-1s1,0.4,1,1v10c0,2.8,2.2,5,5,5s5-2.2,5-5V1c0-0.6,0.4-1,1-1
		s1,0.4,1,1v10C14.7,14.9,11.5,18,7.7,18z"/>
</g>
<g>
	<path class="st0" d="M7.7,48c-0.6,0-1-0.4-1-1V1c0-0.6,0.4-1,1-1s1,0.4,1,1v46C8.7,47.6,8.2,48,7.7,48z"/>
</g>
</svg>
