<?xml version="1.0" encoding="utf-8"?>
<!-- Generator: Adobe Illustrator 19.2.1, SVG Export Plug-In . SVG Version: 6.00 Build 0)  -->
<svg version="1.1" id="Layer_1" xmlns="http://www.w3.org/2000/svg" xmlns:xlink="http://www.w3.org/1999/xlink" x="0px" y="0px"
	 viewBox="0 0 15.3 48" style="enable-background:new 0 0 15.3 48;" xml:space="preserve">
<style type="text/css">
	.st0{fill:#FFFFFF;}
</style>
<g>
	<g>
		<path class="st0" d="M6.3,48c-0.6,0-1-0.4-1-1V1c0-0.6,0.4-1,1-1s1,0.4,1,1v46C7.3,47.6,6.9,48,6.3,48z"/>
	</g>
	<g>
		<path class="st0" d="M12.3,31h-6c-0.6,0-1-0.4-1-1s0.4-1,1-1h5c-0.1-16.8-3.6-26.7-5-27c-0.6,0-1-0.4-1-1c0-0.6,0.5-1,1-1
			c4.2,0,7,15.5,7,30C13.3,30.6,12.9,31,12.3,31z"/>
	</g>
</g>
</svg>
