<?xml version="1.0" encoding="utf-8"?>
<!-- Generator: Adobe Illustrator 19.2.1, SVG Export Plug-In . SVG Version: 6.00 Build 0)  -->
<svg version="1.1" id="Layer_1" xmlns="http://www.w3.org/2000/svg" xmlns:xlink="http://www.w3.org/1999/xlink" x="0px" y="0px"
	 viewBox="0 0 48 48" style="enable-background:new 0 0 48 48;" xml:space="preserve">
<style type="text/css">
	.st0{fill:#FFFFFF;}
</style>
<path class="st0" d="M37,47H11c-2.2,0-4-1.8-4-4V8c0-2.2,1.8-4,4-4h3l0,0c0.6,0,1,0.4,1,1s-0.4,1-1,1l0,0h-3C9.9,6,9,6.9,9,8v35
	c0,1.1,0.9,2,2,2h26c1.1,0,2-0.9,2-2V8c0-1.1-0.9-2-2-2h-3l0,0c-0.6,0-1-0.4-1-1s0.4-1,1-1c0,0,0,0,0,0h3c2.2,0,4,1.8,4,4v35
	C41,45.2,39.2,47,37,47z M35,9c0,0.6-0.4,1-1,1H14c-0.6,0-1-0.4-1-1s0.4-1,1-1c0,0,1.1-0.1,2-1l2-2c0,0,0.8-1,2-1h1c0-1.7,1.3-3,3-3
	c1.7,0,3,1.3,3,3h1c1.3,0,2,1,2,1l2,2c0.9,0.9,2,1,2,1C34.6,8,35,8.4,35,9z M24,3c-0.6,0-1,0.4-1,1h2C25,3.4,24.6,3,24,3z M29.4,7
	c0,0-0.7-1-1.8-1h-7.1c-1.1,0-1.8,1-1.8,1l-0.9,1h12.5L29.4,7z"/>
</svg>
